<svg width="29" height="30" viewBox="0 0 29 30" fill="none" xmlns="http://www.w3.org/2000/svg">
<path d="M9.958 0.81118C13.1928 -0.299338 16.7103 -0.268794 19.9253 0.89773C21.691 1.5587 23.3087 2.56192 24.6856 3.8498C24.2177 4.35038 23.7242 4.81822 23.247 5.30478C22.3394 6.21082 21.4325 7.11375 20.5265 8.01357C19.6232 7.14979 18.5306 6.50897 17.3358 6.14221C15.8069 5.68055 14.1803 5.64894 12.6346 6.05084C11.0888 6.45275 9.68364 7.27265 8.5732 8.42059C7.60391 9.40664 6.86985 10.5989 6.42581 11.9083L1.57666 8.15392C3.31236 4.71193 6.31762 2.07908 9.958 0.81118Z" fill="#E33629"/>
<path d="M0.290054 11.8733C0.55069 10.5815 0.9834 9.33061 1.57661 8.15393L6.42577 11.9177C5.79141 13.7858 5.79141 15.811 6.42577 17.6791C4.81016 18.9267 3.19378 20.1805 1.57661 21.4406C0.0915744 18.4846 -0.361336 15.1166 0.290054 11.8733Z" fill="#F8BD00"/>
<path d="M14.7955 12.0253H28.7184C29.1946 14.638 29.0658 17.3251 28.3418 19.8803C27.6756 22.23 26.3817 24.3536 24.599 26.023C23.0341 24.802 21.4622 23.5903 19.8973 22.3692C20.6731 21.8459 21.3353 21.1713 21.8442 20.3859C22.3531 19.6005 22.6981 18.7204 22.8587 17.7984H14.7955C14.7931 15.8756 14.7955 13.9504 14.7955 12.0253Z" fill="#587DBD"/>
<path d="M1.57422 21.4405C3.19138 20.1929 4.80777 18.9391 6.42337 17.6791C7.04842 19.5135 8.2372 21.1034 9.81989 22.2218C10.807 22.9195 11.9287 23.4039 13.1135 23.644C14.2809 23.8611 15.4783 23.8611 16.6457 23.644C17.8096 23.447 18.9195 23.0088 19.9042 22.3575C21.4691 23.5785 23.041 24.7902 24.6059 26.0113C22.8934 27.5686 20.8057 28.6543 18.5474 29.1622C16.0548 29.7482 13.4572 29.7201 10.9778 29.0803C9.01684 28.5567 7.18519 27.6337 5.59764 26.3692C3.9173 25.0351 2.54488 23.3539 1.57422 21.4405Z" fill="#319F43"/>
</svg>
