<svg width="149" height="33" viewBox="0 0 149 33" fill="none" xmlns="http://www.w3.org/2000/svg">
<path d="M34.316 23.972C34.628 23.972 34.868 24.116 35.036 24.404C35.228 24.692 35.324 25.088 35.324 25.592C35.324 26.528 35.096 27.272 34.64 27.824C33.488 29.216 32.324 30.296 31.148 31.064C29.972 31.808 28.58 32.18 26.972 32.18C25.412 32.18 24.08 31.76 22.976 30.92C21.896 30.08 20.864 28.64 19.88 26.6C19.088 24.968 18.464 23.768 18.008 23C17.552 22.208 17.096 21.644 16.64 21.308C16.208 20.972 15.668 20.768 15.02 20.696C14.924 21.2 14.648 22.784 14.192 25.448C14 26.648 13.88 27.38 13.832 27.644C13.592 29.108 13.112 30.236 12.392 31.028C11.672 31.796 10.58 32.18 9.116 32.18C7.508 32.18 6.08 31.712 4.832 30.776C3.608 29.816 2.66 28.496 1.988 26.816C1.316 25.112 0.98 23.18 0.98 21.02C0.98 16.988 1.676 13.508 3.068 10.58C4.484 7.652 6.452 5.42 8.972 3.884C11.516 2.324 14.444 1.544 17.756 1.544C20.06 1.544 21.992 1.892 23.552 2.588C25.112 3.284 26.264 4.244 27.008 5.468C27.776 6.692 28.16 8.072 28.16 9.608C28.16 10.952 27.836 12.272 27.188 13.568C26.564 14.84 25.616 15.968 24.344 16.952C23.072 17.936 21.524 18.668 19.7 19.148C20.852 19.46 21.74 19.964 22.364 20.66C22.988 21.356 23.612 22.376 24.236 23.72C24.908 25.16 25.568 26.216 26.216 26.888C26.888 27.56 27.656 27.896 28.52 27.896C29.288 27.896 30.02 27.644 30.716 27.14C31.412 26.612 32.288 25.724 33.344 24.476C33.632 24.14 33.956 23.972 34.316 23.972ZM10.052 20.66C9.236 20.66 8.672 20.468 8.36 20.084C8.072 19.7 7.928 19.268 7.928 18.788C7.928 18.212 8.108 17.756 8.468 17.42C8.852 17.084 9.284 16.916 9.764 16.916H10.664C11.048 14.564 11.408 12.536 11.744 10.832C12.056 9.272 13.064 8.492 14.768 8.492C16.136 8.492 16.82 9.104 16.82 10.328C16.82 10.592 16.808 10.796 16.784 10.94L15.704 16.916C17 16.844 18.176 16.532 19.232 15.98C20.312 15.428 21.164 14.66 21.788 13.676C22.436 12.692 22.76 11.576 22.76 10.328C22.76 8.816 22.244 7.628 21.212 6.764C20.18 5.9 18.668 5.468 16.676 5.468C14.324 5.468 12.26 6.056 10.484 7.232C8.732 8.384 7.364 10.112 6.38 12.416C5.396 14.696 4.904 17.48 4.904 20.768C4.904 22.304 5.06 23.624 5.372 24.728C5.684 25.832 6.068 26.66 6.524 27.212C6.98 27.764 7.412 28.04 7.82 28.04C8.132 28.04 8.384 27.884 8.576 27.572C8.792 27.26 8.96 26.756 9.08 26.06L10.052 20.66ZM47.7567 23.972C48.0687 23.972 48.3087 24.116 48.4767 24.404C48.6687 24.692 48.7647 25.088 48.7647 25.592C48.7647 26.552 48.5367 27.296 48.0807 27.824C47.1927 28.904 45.9327 29.9 44.3007 30.812C42.6927 31.724 40.9647 32.18 39.1167 32.18C36.5967 32.18 34.6407 31.496 33.2487 30.128C31.8567 28.76 31.1607 26.888 31.1607 24.512C31.1607 22.856 31.5087 21.32 32.2047 19.904C32.9007 18.464 33.8607 17.324 35.0847 16.484C36.3327 15.644 37.7367 15.224 39.2967 15.224C40.6887 15.224 41.8047 15.644 42.6447 16.484C43.4847 17.3 43.9047 18.416 43.9047 19.832C43.9047 21.488 43.3047 22.916 42.1047 24.116C40.9287 25.292 38.9247 26.228 36.0927 26.924C36.6927 28.028 37.8327 28.58 39.5127 28.58C40.5927 28.58 41.8167 28.208 43.1847 27.464C44.5767 26.696 45.7767 25.7 46.7847 24.476C47.0727 24.14 47.3967 23.972 47.7567 23.972ZM38.6847 18.752C37.7967 18.752 37.0407 19.268 36.4167 20.3C35.8167 21.332 35.5167 22.58 35.5167 24.044V24.116C36.9327 23.78 38.0487 23.276 38.8647 22.604C39.6807 21.932 40.0887 21.152 40.0887 20.264C40.0887 19.808 39.9567 19.448 39.6927 19.184C39.4527 18.896 39.1167 18.752 38.6847 18.752ZM48.3895 32.18C47.4775 32.18 46.8295 31.7 46.4455 30.74C46.0855 29.78 45.9055 28.244 45.9055 26.132C45.9055 23.012 46.3495 20.048 47.2375 17.24C47.4535 16.544 47.8015 16.04 48.2815 15.728C48.7855 15.392 49.4815 15.224 50.3695 15.224C50.8495 15.224 51.1855 15.284 51.3775 15.404C51.5695 15.524 51.6655 15.752 51.6655 16.088C51.6655 16.472 51.4855 17.336 51.1255 18.68C50.8855 19.64 50.6935 20.48 50.5495 21.2C50.4055 21.92 50.2855 22.808 50.1895 23.864C50.9815 21.8 51.8695 20.12 52.8535 18.824C53.8375 17.528 54.7975 16.604 55.7335 16.052C56.6935 15.5 57.5695 15.224 58.3615 15.224C59.9215 15.224 60.7015 16.004 60.7015 17.564C60.7015 18.5 60.4375 20.192 59.9095 22.64C59.4535 24.728 59.2255 26.108 59.2255 26.78C59.2255 27.74 59.5735 28.22 60.2695 28.22C60.7495 28.22 61.3135 27.932 61.9615 27.356C62.6335 26.756 63.5215 25.796 64.6255 24.476C64.9135 24.14 65.2375 23.972 65.5975 23.972C65.9095 23.972 66.1495 24.116 66.3175 24.404C66.5095 24.692 66.6055 25.088 66.6055 25.592C66.6055 26.552 66.3775 27.296 65.9215 27.824C64.8895 29.096 63.7735 30.14 62.5735 30.956C61.3975 31.772 60.0535 32.18 58.5415 32.18C57.3175 32.18 56.3935 31.832 55.7695 31.136C55.1455 30.416 54.8335 29.384 54.8335 28.04C54.8335 27.368 55.0015 26.168 55.3375 24.44C55.6495 22.928 55.8055 21.884 55.8055 21.308C55.8055 20.924 55.6735 20.732 55.4095 20.732C55.0975 20.732 54.6535 21.14 54.0775 21.956C53.5255 22.748 52.9495 23.804 52.3495 25.124C51.7735 26.444 51.3055 27.836 50.9455 29.3C50.6815 30.428 50.3695 31.196 50.0095 31.604C49.6735 31.988 49.1335 32.18 48.3895 32.18ZM79.7488 23.972C80.0608 23.972 80.3008 24.116 80.4688 24.404C80.6608 24.692 80.7568 25.088 80.7568 25.592C80.7568 26.552 80.5288 27.296 80.0728 27.824C79.0408 29.096 77.9128 30.14 76.6888 30.956C75.4648 31.772 74.0608 32.18 72.4768 32.18C67.5808 32.18 65.1328 28.736 65.1328 21.848C65.1328 20.792 65.1688 19.724 65.2408 18.644H63.8368C63.1168 18.644 62.6248 18.512 62.3608 18.248C62.1208 17.984 62.0008 17.564 62.0008 16.988C62.0008 15.644 62.5408 14.972 63.6208 14.972H65.6728C66.0808 12.332 66.7048 9.92 67.5448 7.736C68.3848 5.552 69.3928 3.812 70.5688 2.516C71.7688 1.22 73.0528 0.571999 74.4208 0.571999C75.4288 0.571999 76.2208 1.016 76.7968 1.904C77.3728 2.792 77.6608 3.908 77.6608 5.252C77.6608 8.972 76.1008 12.212 72.9808 14.972H77.0128C77.3968 14.972 77.6728 15.056 77.8408 15.224C78.0088 15.392 78.0928 15.704 78.0928 16.16C78.0928 17.816 76.7368 18.644 74.0248 18.644H69.6328C69.5848 19.844 69.5608 20.78 69.5608 21.452C69.5608 23.948 69.8488 25.7 70.4248 26.708C71.0248 27.716 71.9608 28.22 73.2328 28.22C74.2648 28.22 75.1768 27.908 75.9688 27.284C76.7608 26.66 77.6968 25.724 78.7768 24.476C79.0648 24.14 79.3888 23.972 79.7488 23.972ZM73.4488 4.028C73.0888 4.028 72.6808 4.484 72.2248 5.396C71.7928 6.284 71.3728 7.532 70.9648 9.14C70.5808 10.724 70.2568 12.488 69.9928 14.432C71.4088 13.208 72.4648 11.84 73.1608 10.328C73.8808 8.792 74.2408 7.4 74.2408 6.152C74.2408 4.736 73.9768 4.028 73.4488 4.028ZM111.162 23.972C111.474 23.972 111.714 24.116 111.882 24.404C112.074 24.692 112.17 25.088 112.17 25.592C112.17 26.528 111.942 27.272 111.486 27.824C109.11 30.728 106.578 32.18 103.89 32.18C101.562 32.18 99.7017 31.28 98.3097 29.48C96.9177 27.68 96.2217 25.1 96.2217 21.74C96.2217 20.924 96.2577 20.108 96.3297 19.292C94.7457 19.58 93.0177 19.796 91.1457 19.94C89.8977 20.036 89.0457 20.096 88.5897 20.12C88.1097 22.568 87.4377 25.568 86.5737 29.12C86.0697 31.208 85.1097 32.252 83.6937 32.252C82.1577 32.252 81.3897 31.556 81.3897 30.164C81.3897 29.852 81.4497 29.42 81.5697 28.868C82.3857 25.58 83.0337 22.796 83.5137 20.516L81.7857 20.588C80.9937 20.588 80.4177 20.456 80.0577 20.192C79.6977 19.904 79.5177 19.448 79.5177 18.824C79.5177 18.032 79.7457 17.456 80.2017 17.096C80.6577 16.712 81.4137 16.496 82.4697 16.448L84.3777 16.376C85.0017 12.992 85.3137 10.412 85.3137 8.636C85.3137 7.508 85.1457 6.74 84.8097 6.332C84.4737 5.924 84.0297 5.72 83.4777 5.72C81.7977 5.72 79.9017 7.124 77.7897 9.932C77.4777 10.34 77.1297 10.544 76.7457 10.544C76.4097 10.544 76.1217 10.388 75.8817 10.076C75.6417 9.764 75.5217 9.368 75.5217 8.888C75.5217 8.144 75.8217 7.352 76.4217 6.512C77.4777 5.048 78.8097 3.848 80.4177 2.912C82.0257 1.952 83.6577 1.472 85.3137 1.472C86.8737 1.472 88.0737 2.012 88.9137 3.092C89.7777 4.148 90.2097 5.804 90.2097 8.06C90.2097 10.052 89.9217 12.752 89.3457 16.16L92.8737 15.98C94.3857 15.908 95.6817 15.788 96.7617 15.62C97.1937 12.98 97.8537 10.508 98.7417 8.204C99.6297 5.9 100.734 4.028 102.054 2.588C103.374 1.148 104.85 0.427999 106.482 0.427999C107.682 0.427999 108.63 0.907999 109.326 1.868C110.022 2.804 110.37 4.04 110.37 5.576C110.37 11.528 107.334 15.656 101.262 17.96C101.19 18.92 101.154 19.916 101.154 20.948C101.154 23.468 101.466 25.256 102.09 26.312C102.714 27.368 103.59 27.896 104.718 27.896C105.702 27.896 106.602 27.644 107.418 27.14C108.234 26.612 109.158 25.724 110.19 24.476C110.478 24.14 110.802 23.972 111.162 23.972ZM106.302 3.56C105.774 3.56 105.21 4.04 104.61 5C104.034 5.96 103.482 7.268 102.954 8.924C102.426 10.58 102.006 12.392 101.694 14.36C103.614 13.568 105.03 12.44 105.942 10.976C106.854 9.512 107.31 7.628 107.31 5.324C107.31 4.772 107.214 4.34 107.022 4.028C106.83 3.716 106.59 3.56 106.302 3.56ZM113.971 12.848C112.963 12.848 112.207 12.62 111.703 12.164C111.199 11.684 110.947 11.024 110.947 10.184C110.947 9.344 111.271 8.648 111.919 8.096C112.591 7.52 113.419 7.232 114.403 7.232C115.291 7.232 116.011 7.448 116.563 7.88C117.115 8.312 117.391 8.924 117.391 9.716C117.391 10.676 117.079 11.444 116.455 12.02C115.831 12.572 115.003 12.848 113.971 12.848ZM113.683 32.18C112.123 32.18 110.983 31.628 110.263 30.524C109.567 29.42 109.219 27.956 109.219 26.132C109.219 25.052 109.351 23.672 109.615 21.992C109.903 20.288 110.263 18.704 110.695 17.24C110.911 16.472 111.199 15.944 111.559 15.656C111.919 15.368 112.495 15.224 113.287 15.224C114.511 15.224 115.123 15.632 115.123 16.448C115.123 17.048 114.895 18.44 114.439 20.624C113.863 23.264 113.575 25.052 113.575 25.988C113.575 26.708 113.671 27.26 113.863 27.644C114.055 28.028 114.379 28.22 114.835 28.22C115.267 28.22 115.807 27.92 116.455 27.32C117.103 26.72 117.967 25.772 119.047 24.476C119.335 24.14 119.659 23.972 120.019 23.972C120.331 23.972 120.571 24.116 120.739 24.404C120.931 24.692 121.027 25.088 121.027 25.592C121.027 26.552 120.799 27.296 120.343 27.824C117.967 30.728 115.747 32.18 113.683 32.18ZM136.286 21.056C136.358 21.032 136.478 21.02 136.646 21.02C137.006 21.02 137.282 21.14 137.474 21.38C137.666 21.62 137.762 21.944 137.762 22.352C137.762 23.096 137.618 23.684 137.33 24.116C137.042 24.524 136.61 24.824 136.034 25.016C134.93 25.376 133.754 25.556 132.506 25.556C131.45 25.556 130.454 25.412 129.518 25.124C128.822 26.252 128.054 27.416 127.214 28.616C126.254 29.984 125.426 30.92 124.73 31.424C124.034 31.928 123.242 32.18 122.354 32.18C121.37 32.18 120.59 31.796 120.014 31.028C119.462 30.26 119.114 29.048 118.97 27.392C118.682 24.032 118.538 21.092 118.538 18.572V17.312C118.562 16.52 118.778 15.968 119.186 15.656C119.594 15.344 120.206 15.188 121.022 15.188C121.646 15.188 122.102 15.332 122.39 15.62C122.702 15.884 122.858 16.34 122.858 16.988C122.858 19.748 123.026 23.336 123.362 27.752C124.802 25.616 125.882 23.912 126.602 22.64C126.242 21.944 126.062 21.116 126.062 20.156C126.062 19.34 126.242 18.548 126.602 17.78C126.962 17.012 127.454 16.388 128.078 15.908C128.702 15.428 129.41 15.188 130.202 15.188C130.898 15.188 131.462 15.44 131.894 15.944C132.326 16.424 132.542 17.132 132.542 18.068C132.542 19.148 132.254 20.384 131.678 21.776C132.59 21.728 133.802 21.548 135.314 21.236L136.286 21.056ZM147.526 25.052C147.838 25.052 148.078 25.196 148.246 25.484C148.438 25.772 148.534 26.168 148.534 26.672C148.534 27.536 148.33 28.28 147.922 28.904C147.25 29.936 146.362 30.74 145.258 31.316C144.178 31.892 142.882 32.18 141.37 32.18C139.066 32.18 137.278 31.496 136.006 30.128C134.734 28.736 134.098 26.864 134.098 24.512C134.098 22.856 134.446 21.32 135.142 19.904C135.838 18.464 136.798 17.324 138.022 16.484C139.27 15.644 140.674 15.224 142.234 15.224C143.626 15.224 144.742 15.644 145.582 16.484C146.422 17.3 146.842 18.416 146.842 19.832C146.842 21.488 146.242 22.916 145.042 24.116C143.866 25.292 141.85 26.228 138.994 26.924C139.57 28.028 140.542 28.58 141.91 28.58C142.894 28.58 143.698 28.352 144.322 27.896C144.97 27.44 145.714 26.672 146.554 25.592C146.842 25.232 147.166 25.052 147.526 25.052ZM141.622 18.752C140.734 18.752 139.978 19.268 139.354 20.3C138.754 21.332 138.454 22.58 138.454 24.044V24.116C139.87 23.78 140.986 23.276 141.802 22.604C142.618 21.932 143.026 21.152 143.026 20.264C143.026 19.808 142.894 19.448 142.63 19.184C142.39 18.896 142.054 18.752 141.622 18.752Z" fill="#1A73E8"/>
</svg>
